<svg width="587" height="319" viewBox="0 0 587 319" fill="none" xmlns="http://www.w3.org/2000/svg">
<rect width="587" height="319" rx="18" fill="#F6F1D1"/>
<path d="M36.7386 51.233L36.7472 46.8778H37.2756L41.4688 41.9091H45.6364L40.0028 48.4886H39.142L36.7386 51.233ZM33.4489 55V37.5455H37.0795V55H33.4489ZM41.6307 55L37.7784 49.2983L40.1989 46.733L45.8835 55H41.6307ZM52.8445 55.2557C51.4979 55.2557 50.3388 54.983 49.3672 54.4375C48.4013 53.8864 47.657 53.108 47.1342 52.1023C46.6115 51.0909 46.3501 49.8949 46.3501 48.5142C46.3501 47.1676 46.6115 45.9858 47.1342 44.9688C47.657 43.9517 48.3928 43.1591 49.3416 42.5909C50.2962 42.0227 51.4155 41.7386 52.6996 41.7386C53.5632 41.7386 54.3672 41.8778 55.1115 42.1562C55.8615 42.429 56.5149 42.8409 57.0717 43.392C57.6342 43.9432 58.0717 44.6364 58.3842 45.4716C58.6967 46.3011 58.853 47.2727 58.853 48.3864V49.3835H47.799V47.1335H55.4354C55.4354 46.6108 55.3217 46.1477 55.0945 45.7443C54.8672 45.3409 54.5518 45.0256 54.1484 44.7983C53.7507 44.5653 53.2876 44.4489 52.7592 44.4489C52.2081 44.4489 51.7195 44.5767 51.2933 44.8324C50.8729 45.0824 50.5433 45.4205 50.3047 45.8466C50.0661 46.267 49.9439 46.7358 49.9382 47.2528V49.392C49.9382 50.0398 50.0575 50.5994 50.2962 51.071C50.5405 51.5426 50.8842 51.9062 51.3274 52.1619C51.7706 52.4176 52.2962 52.5455 52.9041 52.5455C53.3075 52.5455 53.6768 52.4886 54.0121 52.375C54.3473 52.2614 54.6342 52.0909 54.8729 51.8636C55.1115 51.6364 55.2933 51.358 55.4183 51.0284L58.7763 51.25C58.6058 52.0568 58.2564 52.7614 57.728 53.3636C57.2053 53.9602 56.5291 54.4261 55.6996 54.7614C54.8757 55.0909 53.924 55.2557 52.8445 55.2557ZM64.853 47.4318V55H61.2223V41.9091H64.6825V44.2188H64.8359C65.1257 43.4574 65.6115 42.8551 66.2933 42.4119C66.9751 41.9631 67.8018 41.7386 68.7734 41.7386C69.6825 41.7386 70.4751 41.9375 71.1513 42.3352C71.8274 42.733 72.353 43.3011 72.728 44.0398C73.103 44.7727 73.2905 45.6477 73.2905 46.6648V55H69.6598V47.3125C69.6655 46.5114 69.4609 45.8864 69.0462 45.4375C68.6314 44.983 68.0604 44.7557 67.3331 44.7557C66.8445 44.7557 66.4126 44.8608 66.0376 45.071C65.6683 45.2812 65.3786 45.5881 65.1683 45.9915C64.9638 46.3892 64.8587 46.8693 64.853 47.4318ZM83.1151 41.9091V44.6364H75.2315V41.9091H83.1151ZM77.0213 38.7727H80.652V50.9773C80.652 51.3125 80.7031 51.5739 80.8054 51.7614C80.9077 51.9432 81.0497 52.071 81.2315 52.1449C81.419 52.2187 81.6349 52.2557 81.8793 52.2557C82.0497 52.2557 82.2202 52.2415 82.3906 52.2131C82.5611 52.179 82.6918 52.1534 82.7827 52.1364L83.3537 54.8381C83.1719 54.8949 82.9162 54.9602 82.5866 55.0341C82.2571 55.1136 81.8565 55.1619 81.3849 55.179C80.5099 55.2131 79.7429 55.0966 79.0838 54.8295C78.4304 54.5625 77.9219 54.1477 77.5582 53.5852C77.1946 53.0227 77.0156 52.3125 77.0213 51.4545V38.7727ZM89.2131 55.2472C88.3778 55.2472 87.6335 55.1023 86.9801 54.8125C86.3267 54.517 85.8097 54.0824 85.429 53.5085C85.054 52.929 84.8665 52.2074 84.8665 51.3438C84.8665 50.6165 85 50.0057 85.267 49.5114C85.5341 49.017 85.8977 48.6193 86.358 48.3182C86.8182 48.017 87.3409 47.7898 87.9261 47.6364C88.517 47.483 89.1364 47.375 89.7841 47.3125C90.5455 47.233 91.1591 47.1591 91.625 47.0909C92.0909 47.017 92.429 46.9091 92.6392 46.767C92.8494 46.625 92.9545 46.4148 92.9545 46.1364V46.0852C92.9545 45.5455 92.7841 45.1278 92.4432 44.8324C92.108 44.5369 91.6307 44.3892 91.0114 44.3892C90.358 44.3892 89.8381 44.5341 89.4517 44.8239C89.0653 45.108 88.8097 45.4659 88.6847 45.8977L85.3267 45.625C85.4972 44.8295 85.8324 44.142 86.3324 43.5625C86.8324 42.9773 87.4773 42.5284 88.267 42.2159C89.0625 41.8977 89.983 41.7386 91.0284 41.7386C91.7557 41.7386 92.4517 41.8239 93.1165 41.9943C93.7869 42.1648 94.3807 42.429 94.8977 42.7869C95.4205 43.1449 95.8324 43.6051 96.1335 44.1676C96.4347 44.7244 96.5852 45.392 96.5852 46.1705V55H93.142V53.1847H93.0398C92.8295 53.5938 92.5483 53.9545 92.196 54.267C91.8438 54.5739 91.4205 54.8153 90.9261 54.9915C90.4318 55.1619 89.8608 55.2472 89.2131 55.2472ZM90.2528 52.7415C90.7869 52.7415 91.2585 52.6364 91.6676 52.4261C92.0767 52.2102 92.3977 51.9205 92.6307 51.5568C92.8636 51.1932 92.9801 50.7812 92.9801 50.321V48.9318C92.8665 49.0057 92.7102 49.0739 92.5114 49.1364C92.3182 49.1932 92.0994 49.2472 91.8551 49.2983C91.6108 49.3437 91.3665 49.3864 91.1222 49.4261C90.8778 49.4602 90.6562 49.4915 90.4574 49.5199C90.0313 49.5824 89.6591 49.6818 89.3409 49.8182C89.0227 49.9545 88.7756 50.1392 88.5994 50.3722C88.4233 50.5994 88.3352 50.8835 88.3352 51.2244C88.3352 51.7188 88.5142 52.0966 88.8722 52.358C89.2358 52.6136 89.696 52.7415 90.2528 52.7415ZM102.692 51.233L102.7 46.8778H103.229L107.422 41.9091H111.589L105.956 48.4886H105.095L102.692 51.233ZM99.402 55V37.5455H103.033V55H99.402ZM107.584 55L103.732 49.2983L106.152 46.733L111.837 55H107.584ZM118.746 55.2557C117.423 55.2557 116.278 54.9744 115.312 54.4119C114.352 53.8437 113.61 53.054 113.087 52.0426C112.565 51.0256 112.303 49.8466 112.303 48.5057C112.303 47.1534 112.565 45.9716 113.087 44.9602C113.61 43.9432 114.352 43.1534 115.312 42.5909C116.278 42.0227 117.423 41.7386 118.746 41.7386C120.07 41.7386 121.212 42.0227 122.173 42.5909C123.138 43.1534 123.883 43.9432 124.406 44.9602C124.928 45.9716 125.19 47.1534 125.19 48.5057C125.19 49.8466 124.928 51.0256 124.406 52.0426C123.883 53.054 123.138 53.8437 122.173 54.4119C121.212 54.9744 120.07 55.2557 118.746 55.2557ZM118.763 52.4432C119.366 52.4432 119.869 52.2727 120.272 51.9318C120.675 51.5852 120.979 51.1136 121.184 50.517C121.394 49.9205 121.499 49.2415 121.499 48.4801C121.499 47.7188 121.394 47.0398 121.184 46.4432C120.979 45.8466 120.675 45.375 120.272 45.0284C119.869 44.6818 119.366 44.5085 118.763 44.5085C118.156 44.5085 117.644 44.6818 117.229 45.0284C116.82 45.375 116.511 45.8466 116.3 46.4432C116.096 47.0398 115.994 47.7188 115.994 48.4801C115.994 49.2415 116.096 49.9205 116.3 50.517C116.511 51.1136 116.82 51.5852 117.229 51.9318C117.644 52.2727 118.156 52.4432 118.763 52.4432ZM127.55 55V41.9091H131.011V44.2188H131.164C131.437 43.4517 131.891 42.8466 132.528 42.4034C133.164 41.9602 133.925 41.7386 134.812 41.7386C135.71 41.7386 136.474 41.9631 137.104 42.4119C137.735 42.8551 138.156 43.4574 138.366 44.2188H138.502C138.769 43.4688 139.252 42.8693 139.951 42.4205C140.656 41.9659 141.488 41.7386 142.448 41.7386C143.67 41.7386 144.661 42.1278 145.423 42.9062C146.19 43.679 146.573 44.7756 146.573 46.196V55H142.951V46.9119C142.951 46.1847 142.758 45.6392 142.371 45.2756C141.985 44.9119 141.502 44.7301 140.923 44.7301C140.263 44.7301 139.749 44.9403 139.38 45.3608C139.011 45.7756 138.826 46.3239 138.826 47.0057V55H135.306V46.8352C135.306 46.1932 135.121 45.6818 134.752 45.3011C134.388 44.9205 133.908 44.7301 133.312 44.7301C132.908 44.7301 132.545 44.8324 132.221 45.0369C131.903 45.2358 131.65 45.517 131.462 45.8807C131.275 46.2386 131.181 46.6591 131.181 47.142V55H127.55ZM156.04 37.5455V55H152.349V41.0483H152.247L148.25 43.554V40.2812L152.571 37.5455H156.04ZM160.188 55V52.3409L166.401 46.5881C166.93 46.0767 167.373 45.6165 167.731 45.2074C168.094 44.7983 168.37 44.3977 168.558 44.0057C168.745 43.608 168.839 43.179 168.839 42.7188C168.839 42.2074 168.722 41.767 168.489 41.3977C168.256 41.0227 167.938 40.7358 167.535 40.5369C167.131 40.3324 166.674 40.2301 166.163 40.2301C165.629 40.2301 165.163 40.3381 164.765 40.554C164.367 40.7699 164.06 41.0795 163.844 41.483C163.629 41.8864 163.521 42.3665 163.521 42.9233H160.018C160.018 41.7812 160.276 40.7898 160.793 39.9489C161.31 39.108 162.035 38.4574 162.967 37.9972C163.898 37.5369 164.972 37.3068 166.188 37.3068C167.438 37.3068 168.526 37.5284 169.452 37.9716C170.384 38.4091 171.109 39.017 171.626 39.7955C172.143 40.5739 172.401 41.4659 172.401 42.4716C172.401 43.1307 172.271 43.7812 172.009 44.4233C171.754 45.0653 171.296 45.7784 170.637 46.5625C169.978 47.3409 169.049 48.2756 167.85 49.3665L165.302 51.8636V51.983H172.631V55H160.188ZM182.899 37.5455V55H179.209V41.0483H179.107L175.109 43.554V40.2812L179.43 37.5455H182.899ZM193.499 55.2386C192.227 55.2386 191.093 55.0199 190.099 54.5824C189.11 54.1392 188.329 53.5312 187.755 52.7585C187.187 51.9801 186.894 51.0824 186.877 50.0653H190.593C190.616 50.4915 190.755 50.8665 191.011 51.1903C191.272 51.5085 191.619 51.7557 192.05 51.9318C192.482 52.108 192.968 52.196 193.508 52.196C194.07 52.196 194.567 52.0966 194.999 51.8977C195.431 51.6989 195.769 51.4233 196.013 51.071C196.258 50.7187 196.38 50.3125 196.38 49.8523C196.38 49.3864 196.249 48.9744 195.988 48.6165C195.732 48.2528 195.363 47.9687 194.88 47.7642C194.403 47.5597 193.835 47.4574 193.175 47.4574H191.548V44.7472H193.175C193.732 44.7472 194.224 44.6506 194.65 44.4574C195.082 44.2642 195.417 43.9972 195.656 43.6562C195.894 43.3097 196.013 42.9062 196.013 42.446C196.013 42.0085 195.908 41.625 195.698 41.2955C195.494 40.9602 195.204 40.6989 194.829 40.5114C194.46 40.3239 194.028 40.2301 193.533 40.2301C193.033 40.2301 192.576 40.321 192.161 40.5028C191.746 40.679 191.414 40.9318 191.164 41.2614C190.914 41.5909 190.781 41.9773 190.763 42.4205H187.227C187.244 41.4148 187.531 40.5284 188.087 39.7614C188.644 38.9943 189.394 38.3949 190.337 37.9631C191.286 37.5256 192.357 37.3068 193.55 37.3068C194.755 37.3068 195.809 37.5256 196.712 37.9631C197.616 38.4006 198.317 38.9915 198.817 39.7358C199.323 40.4744 199.573 41.304 199.567 42.2244C199.573 43.2017 199.269 44.017 198.656 44.6705C198.048 45.3239 197.255 45.7386 196.278 45.9148V46.0511C197.562 46.2159 198.539 46.6619 199.21 47.3892C199.886 48.1108 200.221 49.0142 200.215 50.0994C200.221 51.0938 199.934 51.9773 199.354 52.75C198.781 53.5227 197.988 54.1307 196.977 54.5739C195.965 55.017 194.806 55.2386 193.499 55.2386Z" fill="#0B2027"/>
<path d="M32.5682 112.392V110.364H42.125V112.392H38.5625V122H36.1307V112.392H32.5682ZM46.331 122.17C45.4484 122.17 44.6851 121.983 44.0412 121.608C43.401 121.229 42.9067 120.703 42.5582 120.028C42.2098 119.35 42.0355 118.564 42.0355 117.67C42.0355 116.769 42.2098 115.981 42.5582 115.307C42.9067 114.629 43.401 114.102 44.0412 113.727C44.6851 113.348 45.4484 113.159 46.331 113.159C47.2135 113.159 47.9749 113.348 48.6151 113.727C49.259 114.102 49.7552 114.629 50.1037 115.307C50.4522 115.981 50.6264 116.769 50.6264 117.67C50.6264 118.564 50.4522 119.35 50.1037 120.028C49.7552 120.703 49.259 121.229 48.6151 121.608C47.9749 121.983 47.2135 122.17 46.331 122.17ZM46.3423 120.295C46.7438 120.295 47.0791 120.182 47.348 119.955C47.617 119.723 47.8196 119.409 47.956 119.011C48.0961 118.614 48.1662 118.161 48.1662 117.653C48.1662 117.146 48.0961 116.693 47.956 116.295C47.8196 115.898 47.617 115.583 47.348 115.352C47.0791 115.121 46.7438 115.006 46.3423 115.006C45.937 115.006 45.5961 115.121 45.3196 115.352C45.0469 115.583 44.8404 115.898 44.7003 116.295C44.5639 116.693 44.4957 117.146 44.4957 117.653C44.4957 118.161 44.5639 118.614 44.7003 119.011C44.8404 119.409 45.0469 119.723 45.3196 119.955C45.5961 120.182 45.937 120.295 46.3423 120.295ZM56.8423 113.273V115.091H51.5866V113.273H56.8423ZM52.7798 111.182H55.2003V119.318C55.2003 119.542 55.2344 119.716 55.3026 119.841C55.3707 119.962 55.4654 120.047 55.5866 120.097C55.7116 120.146 55.8556 120.17 56.0185 120.17C56.1321 120.17 56.2457 120.161 56.3594 120.142C56.473 120.119 56.5601 120.102 56.6207 120.091L57.0014 121.892C56.8802 121.93 56.7098 121.973 56.4901 122.023C56.2704 122.076 56.0033 122.108 55.6889 122.119C55.1056 122.142 54.5942 122.064 54.1548 121.886C53.7192 121.708 53.3802 121.432 53.1378 121.057C52.8954 120.682 52.776 120.208 52.7798 119.636V111.182ZM60.9077 122.165C60.3509 122.165 59.8546 122.068 59.419 121.875C58.9834 121.678 58.6387 121.388 58.3849 121.006C58.1349 120.619 58.0099 120.138 58.0099 119.562C58.0099 119.078 58.099 118.67 58.277 118.341C58.455 118.011 58.6974 117.746 59.0043 117.545C59.3111 117.345 59.6596 117.193 60.0497 117.091C60.4437 116.989 60.8565 116.917 61.2884 116.875C61.7959 116.822 62.205 116.773 62.5156 116.727C62.8262 116.678 63.0516 116.606 63.1918 116.511C63.3319 116.417 63.402 116.277 63.402 116.091V116.057C63.402 115.697 63.2884 115.419 63.0611 115.222C62.8376 115.025 62.5194 114.926 62.1065 114.926C61.6709 114.926 61.3243 115.023 61.0668 115.216C60.8092 115.405 60.6387 115.644 60.5554 115.932L58.3168 115.75C58.4304 115.22 58.6539 114.761 58.9872 114.375C59.3205 113.985 59.7505 113.686 60.277 113.477C60.8073 113.265 61.4209 113.159 62.1179 113.159C62.6027 113.159 63.0668 113.216 63.5099 113.33C63.9569 113.443 64.3527 113.619 64.6974 113.858C65.0459 114.097 65.3205 114.403 65.5213 114.778C65.7221 115.15 65.8224 115.595 65.8224 116.114V122H63.527V120.79H63.4588C63.3187 121.062 63.1312 121.303 62.8963 121.511C62.6615 121.716 62.3793 121.877 62.0497 121.994C61.7202 122.108 61.3395 122.165 60.9077 122.165ZM61.6009 120.494C61.9569 120.494 62.2713 120.424 62.544 120.284C62.8168 120.14 63.0308 119.947 63.1861 119.705C63.3414 119.462 63.419 119.187 63.419 118.881V117.955C63.3433 118.004 63.2391 118.049 63.1065 118.091C62.9777 118.129 62.8319 118.165 62.669 118.199C62.5062 118.229 62.3433 118.258 62.1804 118.284C62.0175 118.307 61.8698 118.328 61.7372 118.347C61.4531 118.388 61.205 118.455 60.9929 118.545C60.7808 118.636 60.616 118.759 60.4986 118.915C60.3812 119.066 60.3224 119.256 60.3224 119.483C60.3224 119.812 60.4418 120.064 60.6804 120.239C60.9228 120.409 61.2296 120.494 61.6009 120.494ZM70.1207 110.364V122H67.7003V110.364H70.1207ZM82.1207 113.71C82.0753 113.252 81.8802 112.896 81.5355 112.642C81.1908 112.388 80.723 112.261 80.1321 112.261C79.7306 112.261 79.3916 112.318 79.1151 112.432C78.8385 112.542 78.6264 112.695 78.4787 112.892C78.3348 113.089 78.2628 113.312 78.2628 113.562C78.2552 113.771 78.2988 113.953 78.3935 114.108C78.492 114.263 78.6264 114.398 78.7969 114.511C78.9673 114.621 79.1643 114.718 79.3878 114.801C79.6113 114.881 79.8499 114.949 80.1037 115.006L81.1491 115.256C81.6567 115.369 82.1226 115.521 82.5469 115.71C82.9711 115.9 83.3385 116.133 83.6491 116.409C83.9598 116.686 84.2003 117.011 84.3707 117.386C84.545 117.761 84.634 118.191 84.6378 118.676C84.634 119.388 84.4522 120.006 84.0923 120.528C83.7363 121.047 83.2211 121.451 82.5469 121.739C81.8764 122.023 81.0677 122.165 80.1207 122.165C79.1813 122.165 78.3632 122.021 77.6662 121.733C76.973 121.445 76.4313 121.019 76.0412 120.455C75.6548 119.886 75.4522 119.184 75.4332 118.347H77.8139C77.8404 118.737 77.9522 119.062 78.1491 119.324C78.3499 119.581 78.617 119.777 78.9503 119.909C79.2874 120.038 79.6681 120.102 80.0923 120.102C80.509 120.102 80.8707 120.042 81.1776 119.92C81.4882 119.799 81.7287 119.631 81.8991 119.415C82.0696 119.199 82.1548 118.951 82.1548 118.67C82.1548 118.409 82.0772 118.189 81.9219 118.011C81.7704 117.833 81.5469 117.682 81.2514 117.557C80.9598 117.432 80.6018 117.318 80.1776 117.216L78.9105 116.898C77.9295 116.659 77.1548 116.286 76.5866 115.778C76.0185 115.271 75.7363 114.587 75.7401 113.727C75.7363 113.023 75.9238 112.407 76.3026 111.881C76.6851 111.354 77.2098 110.943 77.8764 110.648C78.5431 110.352 79.3007 110.205 80.1491 110.205C81.0128 110.205 81.7666 110.352 82.4105 110.648C83.0582 110.943 83.562 111.354 83.9219 111.881C84.2817 112.407 84.4673 113.017 84.4787 113.71H82.1207ZM90.8892 113.273V115.091H85.6335V113.273H90.8892ZM86.8267 111.182H89.2472V119.318C89.2472 119.542 89.2813 119.716 89.3494 119.841C89.4176 119.962 89.5123 120.047 89.6335 120.097C89.7585 120.146 89.9025 120.17 90.0653 120.17C90.179 120.17 90.2926 120.161 90.4062 120.142C90.5199 120.119 90.607 120.102 90.6676 120.091L91.0483 121.892C90.9271 121.93 90.7566 121.973 90.5369 122.023C90.3172 122.076 90.0502 122.108 89.7358 122.119C89.1525 122.142 88.6411 122.064 88.2017 121.886C87.7661 121.708 87.4271 121.432 87.1847 121.057C86.9422 120.682 86.8229 120.208 86.8267 119.636V111.182ZM94.9545 122.165C94.3977 122.165 93.9015 122.068 93.4659 121.875C93.0303 121.678 92.6856 121.388 92.4318 121.006C92.1818 120.619 92.0568 120.138 92.0568 119.562C92.0568 119.078 92.1458 118.67 92.3239 118.341C92.5019 118.011 92.7443 117.746 93.0511 117.545C93.358 117.345 93.7064 117.193 94.0966 117.091C94.4905 116.989 94.9034 116.917 95.3352 116.875C95.8428 116.822 96.2519 116.773 96.5625 116.727C96.8731 116.678 97.0985 116.606 97.2386 116.511C97.3788 116.417 97.4489 116.277 97.4489 116.091V116.057C97.4489 115.697 97.3352 115.419 97.108 115.222C96.8845 115.025 96.5663 114.926 96.1534 114.926C95.7178 114.926 95.3712 115.023 95.1136 115.216C94.8561 115.405 94.6856 115.644 94.6023 115.932L92.3636 115.75C92.4773 115.22 92.7008 114.761 93.0341 114.375C93.3674 113.985 93.7973 113.686 94.3239 113.477C94.8542 113.265 95.4678 113.159 96.1648 113.159C96.6496 113.159 97.1136 113.216 97.5568 113.33C98.0038 113.443 98.3996 113.619 98.7443 113.858C99.0928 114.097 99.3674 114.403 99.5682 114.778C99.7689 115.15 99.8693 115.595 99.8693 116.114V122H97.5739V120.79H97.5057C97.3655 121.062 97.178 121.303 96.9432 121.511C96.7083 121.716 96.4261 121.877 96.0966 121.994C95.767 122.108 95.3864 122.165 94.9545 122.165ZM95.6477 120.494C96.0038 120.494 96.3182 120.424 96.5909 120.284C96.8636 120.14 97.0777 119.947 97.233 119.705C97.3883 119.462 97.4659 119.187 97.4659 118.881V117.955C97.3902 118.004 97.286 118.049 97.1534 118.091C97.0246 118.129 96.8788 118.165 96.7159 118.199C96.553 118.229 96.3902 118.258 96.2273 118.284C96.0644 118.307 95.9167 118.328 95.7841 118.347C95.5 118.388 95.2519 118.455 95.0398 118.545C94.8277 118.636 94.6629 118.759 94.5455 118.915C94.428 119.066 94.3693 119.256 94.3693 119.483C94.3693 119.812 94.4886 120.064 94.7273 120.239C94.9697 120.409 95.2765 120.494 95.6477 120.494ZM101.747 122V113.273H104.094V114.795H104.185C104.344 114.254 104.611 113.845 104.986 113.568C105.361 113.288 105.793 113.148 106.281 113.148C106.402 113.148 106.533 113.155 106.673 113.17C106.813 113.186 106.937 113.206 107.043 113.233V115.381C106.929 115.347 106.772 115.316 106.571 115.29C106.37 115.263 106.187 115.25 106.02 115.25C105.664 115.25 105.346 115.328 105.065 115.483C104.789 115.634 104.569 115.847 104.406 116.119C104.247 116.392 104.168 116.706 104.168 117.062V122H101.747ZM115.555 115.761L113.339 115.898C113.302 115.708 113.22 115.538 113.095 115.386C112.97 115.231 112.805 115.108 112.601 115.017C112.4 114.922 112.16 114.875 111.879 114.875C111.504 114.875 111.188 114.955 110.93 115.114C110.673 115.269 110.544 115.477 110.544 115.739C110.544 115.947 110.627 116.123 110.794 116.267C110.961 116.411 111.247 116.527 111.652 116.614L113.232 116.932C114.08 117.106 114.713 117.386 115.129 117.773C115.546 118.159 115.754 118.667 115.754 119.295C115.754 119.867 115.586 120.369 115.249 120.801C114.915 121.233 114.457 121.57 113.874 121.812C113.294 122.051 112.625 122.17 111.868 122.17C110.713 122.17 109.792 121.93 109.107 121.449C108.425 120.964 108.025 120.305 107.908 119.472L110.288 119.347C110.36 119.699 110.535 119.968 110.811 120.153C111.088 120.335 111.442 120.426 111.874 120.426C112.298 120.426 112.639 120.345 112.896 120.182C113.158 120.015 113.29 119.801 113.294 119.54C113.29 119.32 113.197 119.14 113.016 119C112.834 118.856 112.554 118.746 112.175 118.67L110.663 118.369C109.811 118.199 109.177 117.903 108.76 117.483C108.347 117.062 108.141 116.527 108.141 115.875C108.141 115.314 108.292 114.831 108.595 114.426C108.902 114.021 109.332 113.708 109.885 113.489C110.442 113.269 111.093 113.159 111.839 113.159C112.942 113.159 113.809 113.392 114.442 113.858C115.078 114.324 115.449 114.958 115.555 115.761ZM121.027 122V110.364H128.868V112.392H123.487V115.165H128.464V117.193H123.487V119.972H128.891V122H121.027ZM133.267 122.165C132.71 122.165 132.214 122.068 131.778 121.875C131.343 121.678 130.998 121.388 130.744 121.006C130.494 120.619 130.369 120.138 130.369 119.562C130.369 119.078 130.458 118.67 130.636 118.341C130.814 118.011 131.057 117.746 131.364 117.545C131.67 117.345 132.019 117.193 132.409 117.091C132.803 116.989 133.216 116.917 133.648 116.875C134.155 116.822 134.564 116.773 134.875 116.727C135.186 116.678 135.411 116.606 135.551 116.511C135.691 116.417 135.761 116.277 135.761 116.091V116.057C135.761 115.697 135.648 115.419 135.42 115.222C135.197 115.025 134.879 114.926 134.466 114.926C134.03 114.926 133.684 115.023 133.426 115.216C133.169 115.405 132.998 115.644 132.915 115.932L130.676 115.75C130.79 115.22 131.013 114.761 131.347 114.375C131.68 113.985 132.11 113.686 132.636 113.477C133.167 113.265 133.78 113.159 134.477 113.159C134.962 113.159 135.426 113.216 135.869 113.33C136.316 113.443 136.712 113.619 137.057 113.858C137.405 114.097 137.68 114.403 137.881 114.778C138.081 115.15 138.182 115.595 138.182 116.114V122H135.886V120.79H135.818C135.678 121.062 135.491 121.303 135.256 121.511C135.021 121.716 134.739 121.877 134.409 121.994C134.08 122.108 133.699 122.165 133.267 122.165ZM133.96 120.494C134.316 120.494 134.631 120.424 134.903 120.284C135.176 120.14 135.39 119.947 135.545 119.705C135.701 119.462 135.778 119.187 135.778 118.881V117.955C135.703 118.004 135.598 118.049 135.466 118.091C135.337 118.129 135.191 118.165 135.028 118.199C134.866 118.229 134.703 118.258 134.54 118.284C134.377 118.307 134.229 118.328 134.097 118.347C133.813 118.388 133.564 118.455 133.352 118.545C133.14 118.636 132.975 118.759 132.858 118.915C132.741 119.066 132.682 119.256 132.682 119.483C132.682 119.812 132.801 120.064 133.04 120.239C133.282 120.409 133.589 120.494 133.96 120.494ZM140.06 122V113.273H142.406V114.795H142.497C142.656 114.254 142.923 113.845 143.298 113.568C143.673 113.288 144.105 113.148 144.594 113.148C144.715 113.148 144.846 113.155 144.986 113.17C145.126 113.186 145.249 113.206 145.355 113.233V115.381C145.241 115.347 145.084 115.316 144.884 115.29C144.683 115.263 144.499 115.25 144.332 115.25C143.976 115.25 143.658 115.328 143.378 115.483C143.101 115.634 142.882 115.847 142.719 116.119C142.56 116.392 142.48 116.706 142.48 117.062V122H140.06ZM149.027 116.955V122H146.607V113.273H148.913V114.812H149.016C149.209 114.305 149.533 113.903 149.987 113.608C150.442 113.309 150.993 113.159 151.641 113.159C152.247 113.159 152.775 113.292 153.226 113.557C153.677 113.822 154.027 114.201 154.277 114.693C154.527 115.182 154.652 115.765 154.652 116.443V122H152.232V116.875C152.235 116.341 152.099 115.924 151.822 115.625C151.546 115.322 151.165 115.17 150.68 115.17C150.355 115.17 150.067 115.241 149.817 115.381C149.571 115.521 149.377 115.725 149.237 115.994C149.101 116.259 149.031 116.58 149.027 116.955ZM160.537 122.17C159.639 122.17 158.866 121.989 158.219 121.625C157.575 121.258 157.079 120.739 156.73 120.068C156.382 119.394 156.207 118.597 156.207 117.676C156.207 116.778 156.382 115.991 156.73 115.312C157.079 114.634 157.569 114.106 158.202 113.727C158.838 113.348 159.584 113.159 160.44 113.159C161.016 113.159 161.552 113.252 162.048 113.438C162.548 113.619 162.984 113.894 163.355 114.261C163.73 114.629 164.022 115.091 164.23 115.648C164.438 116.201 164.543 116.848 164.543 117.591V118.256H157.173V116.756H162.264C162.264 116.407 162.188 116.098 162.037 115.83C161.885 115.561 161.675 115.35 161.406 115.199C161.141 115.044 160.832 114.966 160.48 114.966C160.113 114.966 159.787 115.051 159.503 115.222C159.223 115.388 159.003 115.614 158.844 115.898C158.685 116.178 158.603 116.491 158.599 116.835V118.261C158.599 118.693 158.679 119.066 158.838 119.381C159.001 119.695 159.23 119.938 159.526 120.108C159.821 120.278 160.171 120.364 160.577 120.364C160.846 120.364 161.092 120.326 161.315 120.25C161.539 120.174 161.73 120.061 161.889 119.909C162.048 119.758 162.17 119.572 162.253 119.352L164.491 119.5C164.378 120.038 164.145 120.508 163.793 120.909C163.444 121.307 162.993 121.617 162.44 121.841C161.891 122.061 161.257 122.17 160.537 122.17ZM169.338 122.142C168.675 122.142 168.075 121.972 167.537 121.631C167.003 121.286 166.579 120.78 166.264 120.114C165.954 119.443 165.798 118.621 165.798 117.648C165.798 116.648 165.959 115.816 166.281 115.153C166.603 114.487 167.031 113.989 167.565 113.659C168.103 113.326 168.692 113.159 169.332 113.159C169.821 113.159 170.228 113.242 170.554 113.409C170.884 113.572 171.149 113.777 171.349 114.023C171.554 114.265 171.709 114.504 171.815 114.739H171.889V110.364H174.304V122H171.918V120.602H171.815C171.702 120.845 171.541 121.085 171.332 121.324C171.128 121.559 170.861 121.754 170.531 121.909C170.205 122.064 169.808 122.142 169.338 122.142ZM170.105 120.216C170.495 120.216 170.825 120.11 171.094 119.898C171.366 119.682 171.575 119.381 171.719 118.994C171.866 118.608 171.94 118.155 171.94 117.636C171.94 117.117 171.868 116.667 171.724 116.284C171.58 115.902 171.372 115.606 171.099 115.398C170.827 115.189 170.495 115.085 170.105 115.085C169.707 115.085 169.372 115.193 169.099 115.409C168.827 115.625 168.62 115.924 168.48 116.307C168.34 116.689 168.27 117.133 168.27 117.636C168.27 118.144 168.34 118.593 168.48 118.983C168.624 119.369 168.83 119.672 169.099 119.892C169.372 120.108 169.707 120.216 170.105 120.216Z" fill="#0B2027"/>
<path d="M208.943 122V120.227L213.085 116.392C213.438 116.051 213.733 115.744 213.972 115.472C214.214 115.199 214.398 114.932 214.523 114.67C214.648 114.405 214.71 114.119 214.71 113.812C214.71 113.472 214.633 113.178 214.477 112.932C214.322 112.682 214.11 112.491 213.841 112.358C213.572 112.222 213.267 112.153 212.926 112.153C212.57 112.153 212.259 112.225 211.994 112.369C211.729 112.513 211.525 112.72 211.381 112.989C211.237 113.258 211.165 113.578 211.165 113.949H208.83C208.83 113.187 209.002 112.527 209.347 111.966C209.691 111.405 210.174 110.972 210.795 110.665C211.417 110.358 212.133 110.205 212.943 110.205C213.777 110.205 214.502 110.352 215.119 110.648C215.741 110.939 216.223 111.345 216.568 111.864C216.913 112.383 217.085 112.977 217.085 113.648C217.085 114.087 216.998 114.521 216.824 114.949C216.653 115.377 216.348 115.852 215.909 116.375C215.47 116.894 214.85 117.517 214.051 118.244L212.352 119.909V119.989H217.239V122H208.943ZM223.271 122.159C222.468 122.159 221.752 122.011 221.124 121.716C220.499 121.42 220.002 121.013 219.635 120.494C219.268 119.975 219.076 119.381 219.061 118.71H221.447C221.474 119.161 221.663 119.527 222.016 119.807C222.368 120.087 222.786 120.227 223.271 120.227C223.658 120.227 223.999 120.142 224.294 119.972C224.593 119.797 224.826 119.557 224.993 119.25C225.163 118.939 225.249 118.583 225.249 118.182C225.249 117.773 225.161 117.413 224.987 117.102C224.817 116.792 224.58 116.549 224.277 116.375C223.974 116.201 223.627 116.112 223.237 116.108C222.896 116.108 222.565 116.178 222.243 116.318C221.925 116.458 221.677 116.65 221.499 116.892L219.311 116.5L219.862 110.364H226.976V112.375H221.891L221.589 115.29H221.658C221.862 115.002 222.171 114.763 222.584 114.574C222.997 114.384 223.459 114.29 223.97 114.29C224.671 114.29 225.296 114.455 225.845 114.784C226.394 115.114 226.828 115.566 227.146 116.142C227.464 116.714 227.622 117.373 227.618 118.119C227.622 118.903 227.44 119.6 227.072 120.21C226.709 120.816 226.199 121.294 225.544 121.642C224.893 121.987 224.135 122.159 223.271 122.159Z" fill="#0B2027"/>
<path d="M208.943 157V155.227L213.085 151.392C213.438 151.051 213.733 150.744 213.972 150.472C214.214 150.199 214.398 149.932 214.523 149.67C214.648 149.405 214.71 149.119 214.71 148.812C214.71 148.472 214.633 148.178 214.477 147.932C214.322 147.682 214.11 147.491 213.841 147.358C213.572 147.222 213.267 147.153 212.926 147.153C212.57 147.153 212.259 147.225 211.994 147.369C211.729 147.513 211.525 147.72 211.381 147.989C211.237 148.258 211.165 148.578 211.165 148.949H208.83C208.83 148.187 209.002 147.527 209.347 146.966C209.691 146.405 210.174 145.972 210.795 145.665C211.417 145.358 212.133 145.205 212.943 145.205C213.777 145.205 214.502 145.352 215.119 145.648C215.741 145.939 216.223 146.345 216.568 146.864C216.913 147.383 217.085 147.977 217.085 148.648C217.085 149.087 216.998 149.521 216.824 149.949C216.653 150.377 216.348 150.852 215.909 151.375C215.47 151.894 214.85 152.517 214.051 153.244L212.352 154.909V154.989H217.239V157H208.943ZM224.084 145.364V157H221.624V147.699H221.555L218.891 149.369V147.188L221.771 145.364H224.084ZM231.099 157.159C230.296 157.159 229.58 157.011 228.952 156.716C228.327 156.42 227.83 156.013 227.463 155.494C227.096 154.975 226.904 154.381 226.889 153.71H229.276C229.302 154.161 229.491 154.527 229.844 154.807C230.196 155.087 230.615 155.227 231.099 155.227C231.486 155.227 231.827 155.142 232.122 154.972C232.421 154.797 232.654 154.557 232.821 154.25C232.991 153.939 233.077 153.583 233.077 153.182C233.077 152.773 232.99 152.413 232.815 152.102C232.645 151.792 232.408 151.549 232.105 151.375C231.802 151.201 231.455 151.112 231.065 151.108C230.724 151.108 230.393 151.178 230.071 151.318C229.753 151.458 229.505 151.65 229.327 151.892L227.139 151.5L227.69 145.364H234.804V147.375H229.719L229.418 150.29H229.486C229.69 150.002 229.999 149.763 230.412 149.574C230.825 149.384 231.287 149.29 231.798 149.29C232.499 149.29 233.124 149.455 233.673 149.784C234.223 150.114 234.656 150.566 234.974 151.142C235.293 151.714 235.45 152.373 235.446 153.119C235.45 153.903 235.268 154.6 234.901 155.21C234.537 155.816 234.027 156.294 233.372 156.642C232.721 156.987 231.963 157.159 231.099 157.159ZM241.628 157.159C241.029 157.155 240.452 157.055 239.895 156.858C239.342 156.661 238.846 156.341 238.406 155.898C237.967 155.455 237.618 154.867 237.361 154.136C237.107 153.405 236.98 152.508 236.98 151.443C236.984 150.466 237.096 149.593 237.315 148.824C237.539 148.051 237.857 147.396 238.27 146.858C238.687 146.32 239.185 145.911 239.764 145.631C240.344 145.347 240.993 145.205 241.713 145.205C242.49 145.205 243.175 145.356 243.77 145.659C244.365 145.958 244.842 146.366 245.202 146.881C245.565 147.396 245.785 147.973 245.861 148.614H243.435C243.34 148.208 243.141 147.89 242.838 147.659C242.535 147.428 242.16 147.312 241.713 147.312C240.955 147.312 240.38 147.642 239.986 148.301C239.596 148.96 239.397 149.856 239.389 150.989H239.469C239.643 150.644 239.878 150.35 240.173 150.108C240.473 149.862 240.812 149.674 241.19 149.545C241.573 149.413 241.976 149.347 242.401 149.347C243.09 149.347 243.704 149.509 244.241 149.835C244.779 150.157 245.204 150.6 245.514 151.165C245.825 151.729 245.98 152.375 245.98 153.102C245.98 153.89 245.796 154.591 245.429 155.205C245.065 155.818 244.556 156.299 243.901 156.648C243.249 156.992 242.491 157.163 241.628 157.159ZM241.616 155.227C241.995 155.227 242.334 155.136 242.634 154.955C242.933 154.773 243.168 154.527 243.338 154.216C243.509 153.905 243.594 153.557 243.594 153.17C243.594 152.784 243.509 152.437 243.338 152.131C243.171 151.824 242.94 151.58 242.645 151.398C242.349 151.216 242.012 151.125 241.634 151.125C241.349 151.125 241.086 151.178 240.844 151.284C240.605 151.39 240.395 151.538 240.213 151.727C240.035 151.917 239.895 152.136 239.793 152.386C239.69 152.633 239.639 152.896 239.639 153.176C239.639 153.551 239.724 153.894 239.895 154.205C240.069 154.515 240.304 154.763 240.599 154.949C240.899 155.134 241.238 155.227 241.616 155.227Z" fill="#0B2027"/>
<path d="M32.5682 147.392V145.364H42.125V147.392H38.5625V157H36.1307V147.392H32.5682ZM46.331 157.17C45.4484 157.17 44.6851 156.983 44.0412 156.608C43.401 156.229 42.9067 155.703 42.5582 155.028C42.2098 154.35 42.0355 153.564 42.0355 152.67C42.0355 151.769 42.2098 150.981 42.5582 150.307C42.9067 149.629 43.401 149.102 44.0412 148.727C44.6851 148.348 45.4484 148.159 46.331 148.159C47.2135 148.159 47.9749 148.348 48.6151 148.727C49.259 149.102 49.7552 149.629 50.1037 150.307C50.4522 150.981 50.6264 151.769 50.6264 152.67C50.6264 153.564 50.4522 154.35 50.1037 155.028C49.7552 155.703 49.259 156.229 48.6151 156.608C47.9749 156.983 47.2135 157.17 46.331 157.17ZM46.3423 155.295C46.7438 155.295 47.0791 155.182 47.348 154.955C47.617 154.723 47.8196 154.409 47.956 154.011C48.0961 153.614 48.1662 153.161 48.1662 152.653C48.1662 152.146 48.0961 151.693 47.956 151.295C47.8196 150.898 47.617 150.583 47.348 150.352C47.0791 150.121 46.7438 150.006 46.3423 150.006C45.937 150.006 45.5961 150.121 45.3196 150.352C45.0469 150.583 44.8404 150.898 44.7003 151.295C44.5639 151.693 44.4957 152.146 44.4957 152.653C44.4957 153.161 44.5639 153.614 44.7003 154.011C44.8404 154.409 45.0469 154.723 45.3196 154.955C45.5961 155.182 45.937 155.295 46.3423 155.295ZM56.8423 148.273V150.091H51.5866V148.273H56.8423ZM52.7798 146.182H55.2003V154.318C55.2003 154.542 55.2344 154.716 55.3026 154.841C55.3707 154.962 55.4654 155.047 55.5866 155.097C55.7116 155.146 55.8556 155.17 56.0185 155.17C56.1321 155.17 56.2457 155.161 56.3594 155.142C56.473 155.119 56.5601 155.102 56.6207 155.091L57.0014 156.892C56.8802 156.93 56.7098 156.973 56.4901 157.023C56.2704 157.076 56.0033 157.108 55.6889 157.119C55.1056 157.142 54.5942 157.064 54.1548 156.886C53.7192 156.708 53.3802 156.432 53.1378 156.057C52.8954 155.682 52.776 155.208 52.7798 154.636V146.182ZM60.9077 157.165C60.3509 157.165 59.8546 157.068 59.419 156.875C58.9834 156.678 58.6387 156.388 58.3849 156.006C58.1349 155.619 58.0099 155.138 58.0099 154.562C58.0099 154.078 58.099 153.67 58.277 153.341C58.455 153.011 58.6974 152.746 59.0043 152.545C59.3111 152.345 59.6596 152.193 60.0497 152.091C60.4437 151.989 60.8565 151.917 61.2884 151.875C61.7959 151.822 62.205 151.773 62.5156 151.727C62.8262 151.678 63.0516 151.606 63.1918 151.511C63.3319 151.417 63.402 151.277 63.402 151.091V151.057C63.402 150.697 63.2884 150.419 63.0611 150.222C62.8376 150.025 62.5194 149.926 62.1065 149.926C61.6709 149.926 61.3243 150.023 61.0668 150.216C60.8092 150.405 60.6387 150.644 60.5554 150.932L58.3168 150.75C58.4304 150.22 58.6539 149.761 58.9872 149.375C59.3205 148.985 59.7505 148.686 60.277 148.477C60.8073 148.265 61.4209 148.159 62.1179 148.159C62.6027 148.159 63.0668 148.216 63.5099 148.33C63.9569 148.443 64.3527 148.619 64.6974 148.858C65.0459 149.097 65.3205 149.403 65.5213 149.778C65.7221 150.15 65.8224 150.595 65.8224 151.114V157H63.527V155.79H63.4588C63.3187 156.062 63.1312 156.303 62.8963 156.511C62.6615 156.716 62.3793 156.877 62.0497 156.994C61.7202 157.108 61.3395 157.165 60.9077 157.165ZM61.6009 155.494C61.9569 155.494 62.2713 155.424 62.544 155.284C62.8168 155.14 63.0308 154.947 63.1861 154.705C63.3414 154.462 63.419 154.187 63.419 153.881V152.955C63.3433 153.004 63.2391 153.049 63.1065 153.091C62.9777 153.129 62.8319 153.165 62.669 153.199C62.5062 153.229 62.3433 153.258 62.1804 153.284C62.0175 153.307 61.8698 153.328 61.7372 153.347C61.4531 153.388 61.205 153.455 60.9929 153.545C60.7808 153.636 60.616 153.759 60.4986 153.915C60.3812 154.066 60.3224 154.256 60.3224 154.483C60.3224 154.812 60.4418 155.064 60.6804 155.239C60.9228 155.409 61.2296 155.494 61.6009 155.494ZM70.1207 145.364V157H67.7003V145.364H70.1207ZM86.0753 149.438H83.5866C83.5412 149.116 83.4484 148.83 83.3082 148.58C83.1681 148.326 82.9882 148.11 82.7685 147.932C82.5488 147.754 82.295 147.617 82.0071 147.523C81.723 147.428 81.4143 147.381 81.081 147.381C80.4787 147.381 79.9541 147.53 79.5071 147.83C79.0601 148.125 78.7135 148.557 78.4673 149.125C78.2211 149.689 78.098 150.375 78.098 151.182C78.098 152.011 78.2211 152.708 78.4673 153.273C78.7173 153.837 79.0658 154.263 79.5128 154.551C79.9598 154.839 80.4768 154.983 81.0639 154.983C81.3935 154.983 81.6984 154.939 81.9787 154.852C82.2628 154.765 82.5147 154.638 82.7344 154.472C82.9541 154.301 83.1359 154.095 83.2798 153.852C83.4276 153.61 83.5298 153.333 83.5866 153.023L86.0753 153.034C86.0109 153.568 85.8499 154.083 85.5923 154.58C85.3385 155.072 84.9957 155.513 84.5639 155.903C84.1359 156.29 83.6245 156.597 83.0298 156.824C82.4389 157.047 81.7704 157.159 81.0241 157.159C79.9863 157.159 79.0582 156.924 78.2401 156.455C77.4257 155.985 76.7817 155.305 76.3082 154.415C75.8385 153.525 75.6037 152.447 75.6037 151.182C75.6037 149.913 75.8423 148.833 76.3196 147.943C76.7969 147.053 77.4446 146.375 78.2628 145.909C79.081 145.439 80.0014 145.205 81.0241 145.205C81.6984 145.205 82.3234 145.299 82.8991 145.489C83.4787 145.678 83.992 145.955 84.4389 146.318C84.8859 146.678 85.2495 147.119 85.5298 147.642C85.8139 148.165 85.9957 148.763 86.0753 149.438ZM91.7372 157.17C90.8546 157.17 90.0914 156.983 89.4474 156.608C88.8073 156.229 88.313 155.703 87.9645 155.028C87.616 154.35 87.4418 153.564 87.4418 152.67C87.4418 151.769 87.616 150.981 87.9645 150.307C88.313 149.629 88.8073 149.102 89.4474 148.727C90.0914 148.348 90.8546 148.159 91.7372 148.159C92.6198 148.159 93.3812 148.348 94.0213 148.727C94.6652 149.102 95.1615 149.629 95.5099 150.307C95.8584 150.981 96.0327 151.769 96.0327 152.67C96.0327 153.564 95.8584 154.35 95.5099 155.028C95.1615 155.703 94.6652 156.229 94.0213 156.608C93.3812 156.983 92.6198 157.17 91.7372 157.17ZM91.7486 155.295C92.1501 155.295 92.4853 155.182 92.7543 154.955C93.0232 154.723 93.2259 154.409 93.3622 154.011C93.5024 153.614 93.5724 153.161 93.5724 152.653C93.5724 152.146 93.5024 151.693 93.3622 151.295C93.2259 150.898 93.0232 150.583 92.7543 150.352C92.4853 150.121 92.1501 150.006 91.7486 150.006C91.3433 150.006 91.0024 150.121 90.7259 150.352C90.4531 150.583 90.2467 150.898 90.1065 151.295C89.9702 151.693 89.902 152.146 89.902 152.653C89.902 153.161 89.9702 153.614 90.1065 154.011C90.2467 154.409 90.4531 154.723 90.7259 154.955C91.0024 155.182 91.3433 155.295 91.7486 155.295ZM97.6065 157V148.273H99.9134V149.812H100.016C100.197 149.301 100.5 148.898 100.925 148.602C101.349 148.307 101.857 148.159 102.447 148.159C103.046 148.159 103.555 148.309 103.976 148.608C104.396 148.903 104.677 149.305 104.817 149.812H104.908C105.086 149.312 105.408 148.913 105.874 148.614C106.343 148.311 106.898 148.159 107.538 148.159C108.353 148.159 109.014 148.419 109.521 148.938C110.033 149.453 110.288 150.184 110.288 151.131V157H107.874V151.608C107.874 151.123 107.745 150.759 107.487 150.517C107.23 150.275 106.908 150.153 106.521 150.153C106.082 150.153 105.739 150.294 105.493 150.574C105.247 150.85 105.124 151.216 105.124 151.67V157H102.777V151.557C102.777 151.129 102.654 150.788 102.408 150.534C102.165 150.28 101.845 150.153 101.447 150.153C101.179 150.153 100.936 150.222 100.72 150.358C100.508 150.491 100.339 150.678 100.214 150.92C100.089 151.159 100.027 151.439 100.027 151.761V157H97.6065ZM112.2 157V148.273H114.507V149.812H114.609C114.791 149.301 115.094 148.898 115.518 148.602C115.943 148.307 116.45 148.159 117.041 148.159C117.64 148.159 118.149 148.309 118.57 148.608C118.99 148.903 119.27 149.305 119.411 149.812H119.501C119.679 149.312 120.001 148.913 120.467 148.614C120.937 148.311 121.492 148.159 122.132 148.159C122.946 148.159 123.607 148.419 124.115 148.938C124.626 149.453 124.882 150.184 124.882 151.131V157H122.467V151.608C122.467 151.123 122.339 150.759 122.081 150.517C121.823 150.275 121.501 150.153 121.115 150.153C120.676 150.153 120.333 150.294 120.087 150.574C119.84 150.85 119.717 151.216 119.717 151.67V157H117.371V151.557C117.371 151.129 117.248 150.788 117.001 150.534C116.759 150.28 116.439 150.153 116.041 150.153C115.772 150.153 115.53 150.222 115.314 150.358C115.102 150.491 114.933 150.678 114.808 150.92C114.683 151.159 114.621 151.439 114.621 151.761V157H112.2ZM126.794 157V148.273H129.214V157H126.794ZM128.01 147.148C127.65 147.148 127.341 147.028 127.084 146.79C126.83 146.547 126.703 146.258 126.703 145.92C126.703 145.587 126.83 145.301 127.084 145.062C127.341 144.82 127.65 144.699 128.01 144.699C128.37 144.699 128.677 144.82 128.93 145.062C129.188 145.301 129.317 145.587 129.317 145.92C129.317 146.258 129.188 146.547 128.93 146.79C128.677 147.028 128.37 147.148 128.01 147.148ZM135.795 148.273V150.091H130.54V148.273H135.795ZM131.733 146.182H134.153V154.318C134.153 154.542 134.188 154.716 134.256 154.841C134.324 154.962 134.419 155.047 134.54 155.097C134.665 155.146 134.809 155.17 134.972 155.17C135.085 155.17 135.199 155.161 135.312 155.142C135.426 155.119 135.513 155.102 135.574 155.091L135.955 156.892C135.833 156.93 135.663 156.973 135.443 157.023C135.223 157.076 134.956 157.108 134.642 157.119C134.059 157.142 133.547 157.064 133.108 156.886C132.672 156.708 132.333 156.432 132.091 156.057C131.848 155.682 131.729 155.208 131.733 154.636V146.182ZM144.524 150.761L142.308 150.898C142.27 150.708 142.189 150.538 142.064 150.386C141.939 150.231 141.774 150.108 141.57 150.017C141.369 149.922 141.128 149.875 140.848 149.875C140.473 149.875 140.157 149.955 139.899 150.114C139.642 150.269 139.513 150.477 139.513 150.739C139.513 150.947 139.596 151.123 139.763 151.267C139.929 151.411 140.215 151.527 140.621 151.614L142.2 151.932C143.049 152.106 143.681 152.386 144.098 152.773C144.515 153.159 144.723 153.667 144.723 154.295C144.723 154.867 144.554 155.369 144.217 155.801C143.884 156.233 143.426 156.57 142.842 156.812C142.263 157.051 141.594 157.17 140.837 157.17C139.681 157.17 138.761 156.93 138.075 156.449C137.393 155.964 136.994 155.305 136.876 154.472L139.257 154.347C139.329 154.699 139.503 154.968 139.78 155.153C140.056 155.335 140.411 155.426 140.842 155.426C141.267 155.426 141.607 155.345 141.865 155.182C142.126 155.015 142.259 154.801 142.263 154.54C142.259 154.32 142.166 154.14 141.984 154C141.803 153.856 141.522 153.746 141.143 153.67L139.632 153.369C138.78 153.199 138.145 152.903 137.729 152.483C137.316 152.062 137.109 151.527 137.109 150.875C137.109 150.314 137.261 149.831 137.564 149.426C137.871 149.021 138.301 148.708 138.854 148.489C139.411 148.269 140.062 148.159 140.808 148.159C141.911 148.159 142.778 148.392 143.411 148.858C144.047 149.324 144.418 149.958 144.524 150.761Z" fill="#0B2027"/>
<path d="M213.244 192.159C212.396 192.159 211.64 192.013 210.977 191.722C210.318 191.426 209.797 191.021 209.415 190.506C209.036 189.987 208.841 189.388 208.83 188.71H211.307C211.322 188.994 211.415 189.244 211.585 189.46C211.759 189.672 211.991 189.837 212.278 189.955C212.566 190.072 212.89 190.131 213.25 190.131C213.625 190.131 213.956 190.064 214.244 189.932C214.532 189.799 214.758 189.616 214.92 189.381C215.083 189.146 215.165 188.875 215.165 188.568C215.165 188.258 215.078 187.983 214.903 187.744C214.733 187.502 214.487 187.312 214.165 187.176C213.847 187.04 213.468 186.972 213.028 186.972H211.943V185.165H213.028C213.4 185.165 213.727 185.1 214.011 184.972C214.299 184.843 214.523 184.665 214.682 184.438C214.841 184.206 214.92 183.938 214.92 183.631C214.92 183.339 214.85 183.083 214.71 182.864C214.574 182.64 214.381 182.466 214.131 182.341C213.884 182.216 213.597 182.153 213.267 182.153C212.934 182.153 212.629 182.214 212.352 182.335C212.076 182.453 211.854 182.621 211.688 182.841C211.521 183.061 211.432 183.318 211.42 183.614H209.062C209.074 182.943 209.265 182.352 209.636 181.841C210.008 181.33 210.508 180.93 211.136 180.642C211.769 180.35 212.483 180.205 213.278 180.205C214.081 180.205 214.784 180.35 215.386 180.642C215.989 180.934 216.456 181.328 216.79 181.824C217.127 182.316 217.294 182.869 217.29 183.483C217.294 184.134 217.091 184.678 216.682 185.114C216.277 185.549 215.748 185.826 215.097 185.943V186.034C215.953 186.144 216.604 186.441 217.051 186.926C217.502 187.407 217.725 188.009 217.722 188.733C217.725 189.396 217.534 189.985 217.148 190.5C216.765 191.015 216.237 191.42 215.562 191.716C214.888 192.011 214.116 192.159 213.244 192.159ZM219.95 192L224.774 182.455V182.375H219.155V180.364H227.32V182.403L222.49 192H219.95Z" fill="#0B2027"/>
<path d="M32.5682 182.392V180.364H42.125V182.392H38.5625V192H36.1307V182.392H32.5682ZM46.331 192.17C45.4484 192.17 44.6851 191.983 44.0412 191.608C43.401 191.229 42.9067 190.703 42.5582 190.028C42.2098 189.35 42.0355 188.564 42.0355 187.67C42.0355 186.769 42.2098 185.981 42.5582 185.307C42.9067 184.629 43.401 184.102 44.0412 183.727C44.6851 183.348 45.4484 183.159 46.331 183.159C47.2135 183.159 47.9749 183.348 48.6151 183.727C49.259 184.102 49.7552 184.629 50.1037 185.307C50.4522 185.981 50.6264 186.769 50.6264 187.67C50.6264 188.564 50.4522 189.35 50.1037 190.028C49.7552 190.703 49.259 191.229 48.6151 191.608C47.9749 191.983 47.2135 192.17 46.331 192.17ZM46.3423 190.295C46.7438 190.295 47.0791 190.182 47.348 189.955C47.617 189.723 47.8196 189.409 47.956 189.011C48.0961 188.614 48.1662 188.161 48.1662 187.653C48.1662 187.146 48.0961 186.693 47.956 186.295C47.8196 185.898 47.617 185.583 47.348 185.352C47.0791 185.121 46.7438 185.006 46.3423 185.006C45.937 185.006 45.5961 185.121 45.3196 185.352C45.0469 185.583 44.8404 185.898 44.7003 186.295C44.5639 186.693 44.4957 187.146 44.4957 187.653C44.4957 188.161 44.5639 188.614 44.7003 189.011C44.8404 189.409 45.0469 189.723 45.3196 189.955C45.5961 190.182 45.937 190.295 46.3423 190.295ZM56.8423 183.273V185.091H51.5866V183.273H56.8423ZM52.7798 181.182H55.2003V189.318C55.2003 189.542 55.2344 189.716 55.3026 189.841C55.3707 189.962 55.4654 190.047 55.5866 190.097C55.7116 190.146 55.8556 190.17 56.0185 190.17C56.1321 190.17 56.2457 190.161 56.3594 190.142C56.473 190.119 56.5601 190.102 56.6207 190.091L57.0014 191.892C56.8802 191.93 56.7098 191.973 56.4901 192.023C56.2704 192.076 56.0033 192.108 55.6889 192.119C55.1056 192.142 54.5942 192.064 54.1548 191.886C53.7192 191.708 53.3802 191.432 53.1378 191.057C52.8954 190.682 52.776 190.208 52.7798 189.636V181.182ZM60.9077 192.165C60.3509 192.165 59.8546 192.068 59.419 191.875C58.9834 191.678 58.6387 191.388 58.3849 191.006C58.1349 190.619 58.0099 190.138 58.0099 189.562C58.0099 189.078 58.099 188.67 58.277 188.341C58.455 188.011 58.6974 187.746 59.0043 187.545C59.3111 187.345 59.6596 187.193 60.0497 187.091C60.4437 186.989 60.8565 186.917 61.2884 186.875C61.7959 186.822 62.205 186.773 62.5156 186.727C62.8262 186.678 63.0516 186.606 63.1918 186.511C63.3319 186.417 63.402 186.277 63.402 186.091V186.057C63.402 185.697 63.2884 185.419 63.0611 185.222C62.8376 185.025 62.5194 184.926 62.1065 184.926C61.6709 184.926 61.3243 185.023 61.0668 185.216C60.8092 185.405 60.6387 185.644 60.5554 185.932L58.3168 185.75C58.4304 185.22 58.6539 184.761 58.9872 184.375C59.3205 183.985 59.7505 183.686 60.277 183.477C60.8073 183.265 61.4209 183.159 62.1179 183.159C62.6027 183.159 63.0668 183.216 63.5099 183.33C63.9569 183.443 64.3527 183.619 64.6974 183.858C65.0459 184.097 65.3205 184.403 65.5213 184.778C65.7221 185.15 65.8224 185.595 65.8224 186.114V192H63.527V190.79H63.4588C63.3187 191.062 63.1312 191.303 62.8963 191.511C62.6615 191.716 62.3793 191.877 62.0497 191.994C61.7202 192.108 61.3395 192.165 60.9077 192.165ZM61.6009 190.494C61.9569 190.494 62.2713 190.424 62.544 190.284C62.8168 190.14 63.0308 189.947 63.1861 189.705C63.3414 189.462 63.419 189.187 63.419 188.881V187.955C63.3433 188.004 63.2391 188.049 63.1065 188.091C62.9777 188.129 62.8319 188.165 62.669 188.199C62.5062 188.229 62.3433 188.258 62.1804 188.284C62.0175 188.307 61.8698 188.328 61.7372 188.347C61.4531 188.388 61.205 188.455 60.9929 188.545C60.7808 188.636 60.616 188.759 60.4986 188.915C60.3812 189.066 60.3224 189.256 60.3224 189.483C60.3224 189.812 60.4418 190.064 60.6804 190.239C60.9228 190.409 61.2296 190.494 61.6009 190.494ZM70.1207 180.364V192H67.7003V180.364H70.1207ZM75.8082 192V180.364H80.3991C81.2817 180.364 82.0336 180.532 82.6548 180.869C83.276 181.203 83.7495 181.667 84.0753 182.261C84.4048 182.852 84.5696 183.534 84.5696 184.307C84.5696 185.08 84.4029 185.761 84.0696 186.352C83.7363 186.943 83.2533 187.403 82.6207 187.733C81.992 188.062 81.2306 188.227 80.3366 188.227H77.4105V186.256H79.9389C80.4124 186.256 80.8026 186.174 81.1094 186.011C81.42 185.845 81.651 185.616 81.8026 185.324C81.9579 185.028 82.0355 184.689 82.0355 184.307C82.0355 183.92 81.9579 183.583 81.8026 183.295C81.651 183.004 81.42 182.778 81.1094 182.619C80.7988 182.456 80.4048 182.375 79.9276 182.375H78.2685V192H75.8082ZM86.1676 192V180.364H90.7585C91.6373 180.364 92.3873 180.521 93.0085 180.835C93.6335 181.146 94.1089 181.587 94.4347 182.159C94.7642 182.727 94.929 183.396 94.929 184.165C94.929 184.937 94.7623 185.602 94.429 186.159C94.0956 186.712 93.6127 187.136 92.9801 187.432C92.3513 187.727 91.59 187.875 90.696 187.875H87.6222V185.898H90.2983C90.768 185.898 91.1581 185.833 91.4688 185.705C91.7794 185.576 92.0104 185.383 92.1619 185.125C92.3172 184.867 92.3949 184.547 92.3949 184.165C92.3949 183.778 92.3172 183.453 92.1619 183.188C92.0104 182.922 91.7775 182.722 91.4631 182.585C91.1525 182.445 90.7604 182.375 90.2869 182.375H88.6278V192H86.1676ZM92.4517 186.705L95.3438 192H92.6278L89.7983 186.705H92.4517ZM103.884 185.761L101.668 185.898C101.63 185.708 101.548 185.538 101.423 185.386C101.298 185.231 101.134 185.108 100.929 185.017C100.728 184.922 100.488 184.875 100.207 184.875C99.8324 184.875 99.5161 184.955 99.2585 185.114C99.0009 185.269 98.8722 185.477 98.8722 185.739C98.8722 185.947 98.9555 186.123 99.1222 186.267C99.2888 186.411 99.5748 186.527 99.9801 186.614L101.56 186.932C102.408 187.106 103.041 187.386 103.457 187.773C103.874 188.159 104.082 188.667 104.082 189.295C104.082 189.867 103.914 190.369 103.577 190.801C103.243 191.233 102.785 191.57 102.202 191.812C101.622 192.051 100.954 192.17 100.196 192.17C99.0407 192.17 98.1203 191.93 97.4347 191.449C96.7528 190.964 96.3532 190.305 96.2358 189.472L98.6165 189.347C98.6884 189.699 98.8627 189.968 99.1392 190.153C99.4157 190.335 99.7699 190.426 100.202 190.426C100.626 190.426 100.967 190.345 101.224 190.182C101.486 190.015 101.618 189.801 101.622 189.54C101.618 189.32 101.526 189.14 101.344 189C101.162 188.856 100.882 188.746 100.503 188.67L98.9915 188.369C98.1392 188.199 97.5047 187.903 97.0881 187.483C96.6752 187.062 96.4688 186.527 96.4688 185.875C96.4688 185.314 96.6203 184.831 96.9233 184.426C97.2301 184.021 97.66 183.708 98.2131 183.489C98.7699 183.269 99.4214 183.159 100.168 183.159C101.27 183.159 102.137 183.392 102.77 183.858C103.406 184.324 103.777 184.958 103.884 185.761Z" fill="#0B2027"/>
<path d="M214.006 215.364V227H211.545V217.699H211.477L208.812 219.369V217.188L211.693 215.364H214.006ZM220.982 215.205C221.58 215.205 222.156 215.305 222.709 215.506C223.266 215.706 223.762 216.027 224.197 216.466C224.637 216.905 224.983 217.489 225.237 218.216C225.495 218.939 225.625 219.828 225.629 220.881C225.629 221.869 225.518 222.752 225.294 223.528C225.074 224.301 224.758 224.958 224.345 225.5C223.932 226.042 223.434 226.455 222.851 226.739C222.268 227.019 221.616 227.159 220.896 227.159C220.12 227.159 219.434 227.009 218.839 226.71C218.245 226.407 217.766 225.996 217.402 225.477C217.042 224.955 216.824 224.367 216.749 223.716H219.175C219.269 224.14 219.468 224.47 219.771 224.705C220.074 224.936 220.449 225.051 220.896 225.051C221.654 225.051 222.23 224.722 222.624 224.062C223.018 223.4 223.216 222.492 223.22 221.341H223.141C222.966 221.682 222.732 221.975 222.436 222.222C222.141 222.464 221.802 222.652 221.419 222.784C221.04 222.917 220.637 222.983 220.209 222.983C219.523 222.983 218.911 222.822 218.374 222.5C217.836 222.178 217.411 221.735 217.101 221.17C216.79 220.606 216.635 219.962 216.635 219.239C216.631 218.458 216.811 217.763 217.175 217.153C217.538 216.544 218.046 216.066 218.697 215.722C219.353 215.373 220.114 215.201 220.982 215.205ZM220.999 217.136C220.616 217.136 220.275 217.227 219.976 217.409C219.68 217.591 219.446 217.835 219.271 218.142C219.101 218.449 219.018 218.792 219.021 219.17C219.021 219.553 219.105 219.898 219.271 220.205C219.442 220.508 219.673 220.75 219.964 220.932C220.26 221.11 220.597 221.199 220.976 221.199C221.26 221.199 221.523 221.146 221.766 221.04C222.008 220.934 222.218 220.788 222.396 220.602C222.578 220.413 222.72 220.195 222.822 219.949C222.925 219.703 222.976 219.441 222.976 219.165C222.972 218.797 222.885 218.46 222.714 218.153C222.544 217.847 222.309 217.6 222.01 217.415C221.711 217.229 221.374 217.136 220.999 217.136Z" fill="#0B2027"/>
<path d="M32.5682 217.392V215.364H42.125V217.392H38.5625V227H36.1307V217.392H32.5682ZM46.331 227.17C45.4484 227.17 44.6851 226.983 44.0412 226.608C43.401 226.229 42.9067 225.703 42.5582 225.028C42.2098 224.35 42.0355 223.564 42.0355 222.67C42.0355 221.769 42.2098 220.981 42.5582 220.307C42.9067 219.629 43.401 219.102 44.0412 218.727C44.6851 218.348 45.4484 218.159 46.331 218.159C47.2135 218.159 47.9749 218.348 48.6151 218.727C49.259 219.102 49.7552 219.629 50.1037 220.307C50.4522 220.981 50.6264 221.769 50.6264 222.67C50.6264 223.564 50.4522 224.35 50.1037 225.028C49.7552 225.703 49.259 226.229 48.6151 226.608C47.9749 226.983 47.2135 227.17 46.331 227.17ZM46.3423 225.295C46.7438 225.295 47.0791 225.182 47.348 224.955C47.617 224.723 47.8196 224.409 47.956 224.011C48.0961 223.614 48.1662 223.161 48.1662 222.653C48.1662 222.146 48.0961 221.693 47.956 221.295C47.8196 220.898 47.617 220.583 47.348 220.352C47.0791 220.121 46.7438 220.006 46.3423 220.006C45.937 220.006 45.5961 220.121 45.3196 220.352C45.0469 220.583 44.8404 220.898 44.7003 221.295C44.5639 221.693 44.4957 222.146 44.4957 222.653C44.4957 223.161 44.5639 223.614 44.7003 224.011C44.8404 224.409 45.0469 224.723 45.3196 224.955C45.5961 225.182 45.937 225.295 46.3423 225.295ZM56.8423 218.273V220.091H51.5866V218.273H56.8423ZM52.7798 216.182H55.2003V224.318C55.2003 224.542 55.2344 224.716 55.3026 224.841C55.3707 224.962 55.4654 225.047 55.5866 225.097C55.7116 225.146 55.8556 225.17 56.0185 225.17C56.1321 225.17 56.2457 225.161 56.3594 225.142C56.473 225.119 56.5601 225.102 56.6207 225.091L57.0014 226.892C56.8802 226.93 56.7098 226.973 56.4901 227.023C56.2704 227.076 56.0033 227.108 55.6889 227.119C55.1056 227.142 54.5942 227.064 54.1548 226.886C53.7192 226.708 53.3802 226.432 53.1378 226.057C52.8954 225.682 52.776 225.208 52.7798 224.636V216.182ZM60.9077 227.165C60.3509 227.165 59.8546 227.068 59.419 226.875C58.9834 226.678 58.6387 226.388 58.3849 226.006C58.1349 225.619 58.0099 225.138 58.0099 224.562C58.0099 224.078 58.099 223.67 58.277 223.341C58.455 223.011 58.6974 222.746 59.0043 222.545C59.3111 222.345 59.6596 222.193 60.0497 222.091C60.4437 221.989 60.8565 221.917 61.2884 221.875C61.7959 221.822 62.205 221.773 62.5156 221.727C62.8262 221.678 63.0516 221.606 63.1918 221.511C63.3319 221.417 63.402 221.277 63.402 221.091V221.057C63.402 220.697 63.2884 220.419 63.0611 220.222C62.8376 220.025 62.5194 219.926 62.1065 219.926C61.6709 219.926 61.3243 220.023 61.0668 220.216C60.8092 220.405 60.6387 220.644 60.5554 220.932L58.3168 220.75C58.4304 220.22 58.6539 219.761 58.9872 219.375C59.3205 218.985 59.7505 218.686 60.277 218.477C60.8073 218.265 61.4209 218.159 62.1179 218.159C62.6027 218.159 63.0668 218.216 63.5099 218.33C63.9569 218.443 64.3527 218.619 64.6974 218.858C65.0459 219.097 65.3205 219.403 65.5213 219.778C65.7221 220.15 65.8224 220.595 65.8224 221.114V227H63.527V225.79H63.4588C63.3187 226.062 63.1312 226.303 62.8963 226.511C62.6615 226.716 62.3793 226.877 62.0497 226.994C61.7202 227.108 61.3395 227.165 60.9077 227.165ZM61.6009 225.494C61.9569 225.494 62.2713 225.424 62.544 225.284C62.8168 225.14 63.0308 224.947 63.1861 224.705C63.3414 224.462 63.419 224.187 63.419 223.881V222.955C63.3433 223.004 63.2391 223.049 63.1065 223.091C62.9777 223.129 62.8319 223.165 62.669 223.199C62.5062 223.229 62.3433 223.258 62.1804 223.284C62.0175 223.307 61.8698 223.328 61.7372 223.347C61.4531 223.388 61.205 223.455 60.9929 223.545C60.7808 223.636 60.616 223.759 60.4986 223.915C60.3812 224.066 60.3224 224.256 60.3224 224.483C60.3224 224.812 60.4418 225.064 60.6804 225.239C60.9228 225.409 61.2296 225.494 61.6009 225.494ZM70.1207 215.364V227H67.7003V215.364H70.1207ZM78.2685 215.364V227H75.8082V215.364H78.2685ZM87.5085 220.761L85.2926 220.898C85.2547 220.708 85.1733 220.538 85.0483 220.386C84.9233 220.231 84.7585 220.108 84.554 220.017C84.3532 219.922 84.1127 219.875 83.8324 219.875C83.4574 219.875 83.1411 219.955 82.8835 220.114C82.6259 220.269 82.4972 220.477 82.4972 220.739C82.4972 220.947 82.5805 221.123 82.7472 221.267C82.9138 221.411 83.1998 221.527 83.6051 221.614L85.1847 221.932C86.0331 222.106 86.6657 222.386 87.0824 222.773C87.4991 223.159 87.7074 223.667 87.7074 224.295C87.7074 224.867 87.5388 225.369 87.2017 225.801C86.8684 226.233 86.41 226.57 85.8267 226.812C85.2472 227.051 84.5786 227.17 83.821 227.17C82.6657 227.17 81.7453 226.93 81.0597 226.449C80.3778 225.964 79.9782 225.305 79.8608 224.472L82.2415 224.347C82.3134 224.699 82.4877 224.968 82.7642 225.153C83.0407 225.335 83.3949 225.426 83.8267 225.426C84.2509 225.426 84.5919 225.345 84.8494 225.182C85.1108 225.015 85.2434 224.801 85.2472 224.54C85.2434 224.32 85.1506 224.14 84.9688 224C84.7869 223.856 84.5066 223.746 84.1278 223.67L82.6165 223.369C81.7642 223.199 81.1297 222.903 80.7131 222.483C80.3002 222.062 80.0938 221.527 80.0938 220.875C80.0938 220.314 80.2453 219.831 80.5483 219.426C80.8551 219.021 81.285 218.708 81.8381 218.489C82.3949 218.269 83.0464 218.159 83.7926 218.159C84.8949 218.159 85.7623 218.392 86.3949 218.858C87.0313 219.324 87.4025 219.958 87.5085 220.761ZM96.4929 220.761L94.277 220.898C94.2391 220.708 94.1577 220.538 94.0327 220.386C93.9077 220.231 93.7429 220.108 93.5384 220.017C93.3376 219.922 93.0971 219.875 92.8168 219.875C92.4418 219.875 92.1255 219.955 91.8679 220.114C91.6103 220.269 91.4815 220.477 91.4815 220.739C91.4815 220.947 91.5649 221.123 91.7315 221.267C91.8982 221.411 92.1842 221.527 92.5895 221.614L94.169 221.932C95.0175 222.106 95.6501 222.386 96.0668 222.773C96.4834 223.159 96.6918 223.667 96.6918 224.295C96.6918 224.867 96.5232 225.369 96.1861 225.801C95.8527 226.233 95.3944 226.57 94.8111 226.812C94.2315 227.051 93.563 227.17 92.8054 227.17C91.6501 227.17 90.7296 226.93 90.044 226.449C89.3622 225.964 88.9626 225.305 88.8452 224.472L91.2259 224.347C91.2978 224.699 91.4721 224.968 91.7486 225.153C92.0251 225.335 92.3793 225.426 92.8111 225.426C93.2353 225.426 93.5762 225.345 93.8338 225.182C94.0952 225.015 94.2277 224.801 94.2315 224.54C94.2277 224.32 94.1349 224.14 93.9531 224C93.7713 223.856 93.491 223.746 93.1122 223.67L91.6009 223.369C90.7486 223.199 90.1141 222.903 89.6974 222.483C89.2846 222.062 89.0781 221.527 89.0781 220.875C89.0781 220.314 89.2296 219.831 89.5327 219.426C89.8395 219.021 90.2694 218.708 90.8224 218.489C91.3793 218.269 92.0308 218.159 92.777 218.159C93.8793 218.159 94.7467 218.392 95.3793 218.858C96.0156 219.324 96.3868 219.958 96.4929 220.761ZM103.812 223.284V218.273H106.233V227H103.909V225.415H103.818C103.621 225.926 103.294 226.337 102.835 226.648C102.381 226.958 101.826 227.114 101.17 227.114C100.587 227.114 100.074 226.981 99.6307 226.716C99.1875 226.451 98.8409 226.074 98.5909 225.585C98.3447 225.097 98.2197 224.511 98.2159 223.83V218.273H100.636V223.398C100.64 223.913 100.778 224.32 101.051 224.619C101.324 224.919 101.689 225.068 102.148 225.068C102.439 225.068 102.712 225.002 102.966 224.869C103.22 224.733 103.424 224.532 103.58 224.267C103.739 224.002 103.816 223.674 103.812 223.284ZM112.146 227.17C111.249 227.17 110.476 226.989 109.828 226.625C109.184 226.258 108.688 225.739 108.339 225.068C107.991 224.394 107.817 223.597 107.817 222.676C107.817 221.778 107.991 220.991 108.339 220.312C108.688 219.634 109.179 219.106 109.811 218.727C110.447 218.348 111.194 218.159 112.05 218.159C112.625 218.159 113.161 218.252 113.658 218.438C114.158 218.619 114.593 218.894 114.964 219.261C115.339 219.629 115.631 220.091 115.839 220.648C116.048 221.201 116.152 221.848 116.152 222.591V223.256H108.783V221.756H113.874C113.874 221.407 113.798 221.098 113.646 220.83C113.495 220.561 113.285 220.35 113.016 220.199C112.75 220.044 112.442 219.966 112.089 219.966C111.722 219.966 111.396 220.051 111.112 220.222C110.832 220.388 110.612 220.614 110.453 220.898C110.294 221.178 110.213 221.491 110.209 221.835V223.261C110.209 223.693 110.288 224.066 110.447 224.381C110.61 224.695 110.839 224.938 111.135 225.108C111.43 225.278 111.781 225.364 112.186 225.364C112.455 225.364 112.701 225.326 112.925 225.25C113.148 225.174 113.339 225.061 113.499 224.909C113.658 224.758 113.779 224.572 113.862 224.352L116.101 224.5C115.987 225.038 115.754 225.508 115.402 225.909C115.054 226.307 114.603 226.617 114.05 226.841C113.5 227.061 112.866 227.17 112.146 227.17ZM124.993 220.761L122.777 220.898C122.739 220.708 122.658 220.538 122.533 220.386C122.408 220.231 122.243 220.108 122.038 220.017C121.838 219.922 121.597 219.875 121.317 219.875C120.942 219.875 120.625 219.955 120.368 220.114C120.11 220.269 119.982 220.477 119.982 220.739C119.982 220.947 120.065 221.123 120.232 221.267C120.398 221.411 120.684 221.527 121.089 221.614L122.669 221.932C123.518 222.106 124.15 222.386 124.567 222.773C124.983 223.159 125.192 223.667 125.192 224.295C125.192 224.867 125.023 225.369 124.686 225.801C124.353 226.233 123.894 226.57 123.311 226.812C122.732 227.051 122.063 227.17 121.305 227.17C120.15 227.17 119.23 226.93 118.544 226.449C117.862 225.964 117.463 225.305 117.345 224.472L119.726 224.347C119.798 224.699 119.972 224.968 120.249 225.153C120.525 225.335 120.879 225.426 121.311 225.426C121.735 225.426 122.076 225.345 122.334 225.182C122.595 225.015 122.728 224.801 122.732 224.54C122.728 224.32 122.635 224.14 122.453 224C122.271 223.856 121.991 223.746 121.612 223.67L120.101 223.369C119.249 223.199 118.614 222.903 118.197 222.483C117.785 222.062 117.578 221.527 117.578 220.875C117.578 220.314 117.73 219.831 118.033 219.426C118.339 219.021 118.769 218.708 119.322 218.489C119.879 218.269 120.531 218.159 121.277 218.159C122.379 218.159 123.247 218.392 123.879 218.858C124.516 219.324 124.887 219.958 124.993 220.761Z" fill="#0B2027"/>
<path d="M214.006 250.364V262H211.545V252.699H211.477L208.812 254.369V252.188L211.693 250.364H214.006ZM221.072 262.159C220.224 262.159 219.468 262.013 218.805 261.722C218.146 261.426 217.625 261.021 217.243 260.506C216.864 259.987 216.669 259.388 216.658 258.71H219.135C219.15 258.994 219.243 259.244 219.413 259.46C219.588 259.672 219.819 259.837 220.107 259.955C220.394 260.072 220.718 260.131 221.078 260.131C221.453 260.131 221.785 260.064 222.072 259.932C222.36 259.799 222.586 259.616 222.749 259.381C222.911 259.146 222.993 258.875 222.993 258.568C222.993 258.258 222.906 257.983 222.732 257.744C222.561 257.502 222.315 257.312 221.993 257.176C221.675 257.04 221.296 256.972 220.857 256.972H219.771V255.165H220.857C221.228 255.165 221.555 255.1 221.839 254.972C222.127 254.843 222.351 254.665 222.51 254.438C222.669 254.206 222.749 253.938 222.749 253.631C222.749 253.339 222.679 253.083 222.538 252.864C222.402 252.64 222.209 252.466 221.959 252.341C221.713 252.216 221.425 252.153 221.095 252.153C220.762 252.153 220.457 252.214 220.18 252.335C219.904 252.453 219.682 252.621 219.516 252.841C219.349 253.061 219.26 253.318 219.249 253.614H216.891C216.902 252.943 217.093 252.352 217.464 251.841C217.836 251.33 218.336 250.93 218.964 250.642C219.597 250.35 220.311 250.205 221.107 250.205C221.91 250.205 222.612 250.35 223.214 250.642C223.817 250.934 224.285 251.328 224.618 251.824C224.955 252.316 225.122 252.869 225.118 253.483C225.122 254.134 224.919 254.678 224.51 255.114C224.105 255.549 223.576 255.826 222.925 255.943V256.034C223.781 256.144 224.432 256.441 224.879 256.926C225.33 257.407 225.554 258.009 225.55 258.733C225.554 259.396 225.362 259.985 224.976 260.5C224.593 261.015 224.065 261.42 223.391 261.716C222.716 262.011 221.944 262.159 221.072 262.159Z" fill="#0B2027"/>
<path d="M43.2784 254.438H40.7898C40.7443 254.116 40.6515 253.83 40.5114 253.58C40.3712 253.326 40.1913 253.11 39.9716 252.932C39.7519 252.754 39.4981 252.617 39.2102 252.523C38.9261 252.428 38.6174 252.381 38.2841 252.381C37.6818 252.381 37.1572 252.53 36.7102 252.83C36.2633 253.125 35.9167 253.557 35.6705 254.125C35.4242 254.689 35.3011 255.375 35.3011 256.182C35.3011 257.011 35.4242 257.708 35.6705 258.273C35.9205 258.837 36.2689 259.263 36.7159 259.551C37.1629 259.839 37.6799 259.983 38.267 259.983C38.5966 259.983 38.9015 259.939 39.1818 259.852C39.4659 259.765 39.7178 259.638 39.9375 259.472C40.1572 259.301 40.339 259.095 40.483 258.852C40.6307 258.61 40.733 258.333 40.7898 258.023L43.2784 258.034C43.214 258.568 43.053 259.083 42.7955 259.58C42.5417 260.072 42.1989 260.513 41.767 260.903C41.339 261.29 40.8277 261.597 40.233 261.824C39.642 262.047 38.9735 262.159 38.2273 262.159C37.1894 262.159 36.2614 261.924 35.4432 261.455C34.6288 260.985 33.9848 260.305 33.5114 259.415C33.0417 258.525 32.8068 257.447 32.8068 256.182C32.8068 254.913 33.0455 253.833 33.5227 252.943C34 252.053 34.6477 251.375 35.4659 250.909C36.2841 250.439 37.2045 250.205 38.2273 250.205C38.9015 250.205 39.5265 250.299 40.1023 250.489C40.6818 250.678 41.1951 250.955 41.642 251.318C42.089 251.678 42.4527 252.119 42.733 252.642C43.017 253.165 43.1989 253.763 43.2784 254.438ZM48.9403 262.17C48.0578 262.17 47.2945 261.983 46.6506 261.608C46.0104 261.229 45.5161 260.703 45.1676 260.028C44.8191 259.35 44.6449 258.564 44.6449 257.67C44.6449 256.769 44.8191 255.981 45.1676 255.307C45.5161 254.629 46.0104 254.102 46.6506 253.727C47.2945 253.348 48.0578 253.159 48.9403 253.159C49.8229 253.159 50.5843 253.348 51.2244 253.727C51.8684 254.102 52.3646 254.629 52.7131 255.307C53.0616 255.981 53.2358 256.769 53.2358 257.67C53.2358 258.564 53.0616 259.35 52.7131 260.028C52.3646 260.703 51.8684 261.229 51.2244 261.608C50.5843 261.983 49.8229 262.17 48.9403 262.17ZM48.9517 260.295C49.3532 260.295 49.6884 260.182 49.9574 259.955C50.2263 259.723 50.429 259.409 50.5653 259.011C50.7055 258.614 50.7756 258.161 50.7756 257.653C50.7756 257.146 50.7055 256.693 50.5653 256.295C50.429 255.898 50.2263 255.583 49.9574 255.352C49.6884 255.121 49.3532 255.006 48.9517 255.006C48.5464 255.006 48.2055 255.121 47.929 255.352C47.6563 255.583 47.4498 255.898 47.3097 256.295C47.1733 256.693 47.1051 257.146 47.1051 257.653C47.1051 258.161 47.1733 258.614 47.3097 259.011C47.4498 259.409 47.6563 259.723 47.929 259.955C48.2055 260.182 48.5464 260.295 48.9517 260.295ZM57.2301 256.955V262H54.8097V253.273H57.1165V254.812H57.2188C57.4119 254.305 57.7358 253.903 58.1903 253.608C58.6449 253.309 59.196 253.159 59.8438 253.159C60.4498 253.159 60.9782 253.292 61.429 253.557C61.8797 253.822 62.2301 254.201 62.4801 254.693C62.7301 255.182 62.8551 255.765 62.8551 256.443V262H60.4347V256.875C60.4384 256.341 60.3021 255.924 60.0256 255.625C59.7491 255.322 59.3684 255.17 58.8835 255.17C58.5578 255.17 58.2699 255.241 58.0199 255.381C57.7737 255.521 57.5805 255.725 57.4403 255.994C57.304 256.259 57.2339 256.58 57.2301 256.955ZM69.4048 253.273V255.091H64.1491V253.273H69.4048ZM65.3423 251.182H67.7628V259.318C67.7628 259.542 67.7969 259.716 67.8651 259.841C67.9332 259.962 68.0279 260.047 68.1491 260.097C68.2741 260.146 68.4181 260.17 68.581 260.17C68.6946 260.17 68.8082 260.161 68.9219 260.142C69.0355 260.119 69.1226 260.102 69.1832 260.091L69.5639 261.892C69.4427 261.93 69.2723 261.973 69.0526 262.023C68.8329 262.076 68.5658 262.108 68.2514 262.119C67.6681 262.142 67.1567 262.064 66.7173 261.886C66.2817 261.708 65.9427 261.432 65.7003 261.057C65.4579 260.682 65.3385 260.208 65.3423 259.636V251.182ZM70.9815 262V253.273H73.3281V254.795H73.419C73.5781 254.254 73.8452 253.845 74.2202 253.568C74.5952 253.288 75.027 253.148 75.5156 253.148C75.6368 253.148 75.7675 253.155 75.9077 253.17C76.0478 253.186 76.1709 253.206 76.277 253.233V255.381C76.1634 255.347 76.0062 255.316 75.8054 255.29C75.6046 255.263 75.4209 255.25 75.2543 255.25C74.8982 255.25 74.58 255.328 74.2997 255.483C74.0232 255.634 73.8035 255.847 73.6406 256.119C73.4815 256.392 73.402 256.706 73.402 257.062V262H70.9815ZM77.5284 262V253.273H79.9489V262H77.5284ZM78.7443 252.148C78.3845 252.148 78.0758 252.028 77.8182 251.79C77.5644 251.547 77.4375 251.258 77.4375 250.92C77.4375 250.587 77.5644 250.301 77.8182 250.062C78.0758 249.82 78.3845 249.699 78.7443 249.699C79.1042 249.699 79.411 249.82 79.6648 250.062C79.9223 250.301 80.0511 250.587 80.0511 250.92C80.0511 251.258 79.9223 251.547 79.6648 251.79C79.411 252.028 79.1042 252.148 78.7443 252.148ZM81.9332 262V250.364H84.3537V254.739H84.4276C84.5336 254.504 84.687 254.265 84.8878 254.023C85.0923 253.777 85.3575 253.572 85.6832 253.409C86.0128 253.242 86.4219 253.159 86.9105 253.159C87.5469 253.159 88.134 253.326 88.6719 253.659C89.2098 253.989 89.6397 254.487 89.9616 255.153C90.2836 255.816 90.4446 256.648 90.4446 257.648C90.4446 258.621 90.2874 259.443 89.973 260.114C89.6624 260.78 89.2382 261.286 88.7003 261.631C88.1662 261.972 87.5677 262.142 86.9048 262.142C86.4351 262.142 86.0355 262.064 85.706 261.909C85.3802 261.754 85.1132 261.559 84.9048 261.324C84.6965 261.085 84.5374 260.845 84.4276 260.602H84.3196V262H81.9332ZM84.3026 257.636C84.3026 258.155 84.3745 258.608 84.5185 258.994C84.6624 259.381 84.8707 259.682 85.1435 259.898C85.4162 260.11 85.7476 260.216 86.1378 260.216C86.5317 260.216 86.8651 260.108 87.1378 259.892C87.4105 259.672 87.617 259.369 87.7571 258.983C87.901 258.593 87.973 258.144 87.973 257.636C87.973 257.133 87.9029 256.689 87.7628 256.307C87.6226 255.924 87.4162 255.625 87.1435 255.409C86.8707 255.193 86.5355 255.085 86.1378 255.085C85.7438 255.085 85.4105 255.189 85.1378 255.398C84.8688 255.606 84.6624 255.902 84.5185 256.284C84.3745 256.667 84.3026 257.117 84.3026 257.636ZM97.6562 258.284V253.273H100.077V262H97.7528V260.415H97.6619C97.465 260.926 97.1373 261.337 96.679 261.648C96.2244 261.958 95.6695 262.114 95.0142 262.114C94.4309 262.114 93.9176 261.981 93.4744 261.716C93.0313 261.451 92.6847 261.074 92.4347 260.585C92.1884 260.097 92.0634 259.511 92.0597 258.83V253.273H94.4801V258.398C94.4839 258.913 94.6222 259.32 94.8949 259.619C95.1676 259.919 95.5331 260.068 95.9915 260.068C96.2831 260.068 96.5559 260.002 96.8097 259.869C97.0634 259.733 97.268 259.532 97.4233 259.267C97.5824 259.002 97.66 258.674 97.6562 258.284ZM106.655 253.273V255.091H101.399V253.273H106.655ZM102.592 251.182H105.013V259.318C105.013 259.542 105.047 259.716 105.115 259.841C105.183 259.962 105.278 260.047 105.399 260.097C105.524 260.146 105.668 260.17 105.831 260.17C105.945 260.17 106.058 260.161 106.172 260.142C106.286 260.119 106.373 260.102 106.433 260.091L106.814 261.892C106.693 261.93 106.522 261.973 106.303 262.023C106.083 262.076 105.816 262.108 105.501 262.119C104.918 262.142 104.407 262.064 103.967 261.886C103.532 261.708 103.193 261.432 102.95 261.057C102.708 260.682 102.589 260.208 102.592 259.636V251.182ZM112.115 262.17C111.217 262.17 110.445 261.989 109.797 261.625C109.153 261.258 108.657 260.739 108.308 260.068C107.96 259.394 107.786 258.597 107.786 257.676C107.786 256.778 107.96 255.991 108.308 255.312C108.657 254.634 109.147 254.106 109.78 253.727C110.416 253.348 111.162 253.159 112.018 253.159C112.594 253.159 113.13 253.252 113.626 253.438C114.126 253.619 114.562 253.894 114.933 254.261C115.308 254.629 115.6 255.091 115.808 255.648C116.017 256.201 116.121 256.848 116.121 257.591V258.256H108.751V256.756H113.842C113.842 256.407 113.767 256.098 113.615 255.83C113.464 255.561 113.253 255.35 112.984 255.199C112.719 255.044 112.411 254.966 112.058 254.966C111.691 254.966 111.365 255.051 111.081 255.222C110.801 255.388 110.581 255.614 110.422 255.898C110.263 256.178 110.181 256.491 110.178 256.835V258.261C110.178 258.693 110.257 259.066 110.416 259.381C110.579 259.695 110.808 259.938 111.104 260.108C111.399 260.278 111.75 260.364 112.155 260.364C112.424 260.364 112.67 260.326 112.893 260.25C113.117 260.174 113.308 260.061 113.467 259.909C113.626 259.758 113.748 259.572 113.831 259.352L116.07 259.5C115.956 260.038 115.723 260.508 115.371 260.909C115.022 261.307 114.571 261.617 114.018 261.841C113.469 262.061 112.835 262.17 112.115 262.17ZM120.916 262.142C120.253 262.142 119.653 261.972 119.115 261.631C118.581 261.286 118.157 260.78 117.842 260.114C117.532 259.443 117.376 258.621 117.376 257.648C117.376 256.648 117.537 255.816 117.859 255.153C118.181 254.487 118.609 253.989 119.143 253.659C119.681 253.326 120.27 253.159 120.911 253.159C121.399 253.159 121.806 253.242 122.132 253.409C122.462 253.572 122.727 253.777 122.928 254.023C123.132 254.265 123.287 254.504 123.393 254.739H123.467V250.364H125.882V262H123.496V260.602H123.393C123.28 260.845 123.119 261.085 122.911 261.324C122.706 261.559 122.439 261.754 122.109 261.909C121.784 262.064 121.386 262.142 120.916 262.142ZM121.683 260.216C122.073 260.216 122.403 260.11 122.672 259.898C122.945 259.682 123.153 259.381 123.297 258.994C123.445 258.608 123.518 258.155 123.518 257.636C123.518 257.117 123.446 256.667 123.303 256.284C123.159 255.902 122.95 255.606 122.678 255.398C122.405 255.189 122.073 255.085 121.683 255.085C121.286 255.085 120.95 255.193 120.678 255.409C120.405 255.625 120.198 255.924 120.058 256.307C119.918 256.689 119.848 257.133 119.848 257.636C119.848 258.144 119.918 258.593 120.058 258.983C120.202 259.369 120.409 259.672 120.678 259.892C120.95 260.108 121.286 260.216 121.683 260.216ZM136.217 253.273V255.091H130.962V253.273H136.217ZM132.155 251.182H134.575V259.318C134.575 259.542 134.609 259.716 134.678 259.841C134.746 259.962 134.84 260.047 134.962 260.097C135.087 260.146 135.231 260.17 135.393 260.17C135.507 260.17 135.621 260.161 135.734 260.142C135.848 260.119 135.935 260.102 135.996 260.091L136.376 261.892C136.255 261.93 136.085 261.973 135.865 262.023C135.645 262.076 135.378 262.108 135.064 262.119C134.481 262.142 133.969 262.064 133.53 261.886C133.094 261.708 132.755 261.432 132.513 261.057C132.27 260.682 132.151 260.208 132.155 259.636V251.182ZM141.643 262.17C140.761 262.17 139.998 261.983 139.354 261.608C138.714 261.229 138.219 260.703 137.871 260.028C137.522 259.35 137.348 258.564 137.348 257.67C137.348 256.769 137.522 255.981 137.871 255.307C138.219 254.629 138.714 254.102 139.354 253.727C139.998 253.348 140.761 253.159 141.643 253.159C142.526 253.159 143.287 253.348 143.928 253.727C144.571 254.102 145.068 254.629 145.416 255.307C145.765 255.981 145.939 256.769 145.939 257.67C145.939 258.564 145.765 259.35 145.416 260.028C145.068 260.703 144.571 261.229 143.928 261.608C143.287 261.983 142.526 262.17 141.643 262.17ZM141.655 260.295C142.056 260.295 142.392 260.182 142.661 259.955C142.929 259.723 143.132 259.409 143.268 259.011C143.409 258.614 143.479 258.161 143.479 257.653C143.479 257.146 143.409 256.693 143.268 256.295C143.132 255.898 142.929 255.583 142.661 255.352C142.392 255.121 142.056 255.006 141.655 255.006C141.25 255.006 140.909 255.121 140.632 255.352C140.359 255.583 140.153 255.898 140.013 256.295C139.876 256.693 139.808 257.146 139.808 257.653C139.808 258.161 139.876 258.614 140.013 259.011C140.153 259.409 140.359 259.723 140.632 259.955C140.909 260.182 141.25 260.295 141.655 260.295Z" fill="#0B2027"/>
<circle cx="443" cy="177" r="100" fill="#0B2027"/>
<path d="M443 77C466.81 77 489.839 85.4958 507.945 100.959C526.05 116.423 538.044 137.839 541.769 161.357C545.494 184.874 540.705 208.948 528.264 229.25C515.823 249.551 496.547 264.748 473.902 272.106L443 177V77Z" fill="#DEA584"/>
<path d="M484.088 268.169C462.264 278.005 437.636 279.685 414.677 272.905C391.719 266.125 371.955 251.335 358.975 231.221L443 177L484.088 268.169Z" fill="#E34C26"/>
<path d="M362.981 236.975C353.063 223.742 346.582 208.257 344.117 191.905C341.652 175.553 343.281 158.845 348.858 143.277L443 177L362.981 236.975Z" fill="#3572A5"/>
<path d="M345.055 156.83C349.278 136.325 359.829 117.664 375.221 103.474L443 177L345.055 156.83Z" fill="#F1E05A"/>
<path d="M372.289 106.289C382.615 95.9636 395.077 88.0246 408.799 83.0303L443 177L372.289 106.289Z" fill="#00ADD8"/>
<circle cx="443" cy="177" r="75" fill="#F6F1D1"/>
</svg>
